<svg width="62" height="62" viewBox="0 0 62 62" fill="none" xmlns="http://www.w3.org/2000/svg">
<rect width="62" height="62" rx="12" fill="#0D0D0D"/>
<path d="M30.9793 10.5347C36.6568 18.0226 39.6875 27.2564 39.5776 36.7314V38.9932L41.4508 40.1773C43.871 41.6994 45.676 44.0602 46.5369 46.8295C45.7811 46.2514 44.9903 45.7226 44.1694 45.2463L39.1744 42.3326L38.2768 48.2132C38.1991 48.7329 38.0949 49.248 37.9646 49.7566H23.968C23.7599 49.0913 23.5907 48.4261 23.4347 47.7343L22.303 42.4124L17.6981 45.0733C16.9288 45.5203 16.186 46.0134 15.4737 46.5502C16.3514 43.8128 18.1187 41.4653 20.4818 39.8979L22.2639 38.7138V36.6116C22.2961 27.1751 25.3633 18.0115 30.9923 10.5347H30.9793ZM30.9923 5C30.7004 5.00074 30.4186 5.10942 30.1988 5.306L30.0818 5.41244C22.5808 13.9929 18.4155 25.0883 18.3745 36.5983C15.1915 38.7106 12.8353 41.8996 11.7178 45.6083C10.6003 49.317 10.7924 53.3094 12.2608 56.8878C13.8075 53.3938 16.3933 50.4884 19.6493 48.5857C19.9759 50.0325 20.4107 51.4514 20.9501 52.8299C21.0185 53.0949 21.1701 53.3296 21.3817 53.4978C21.5932 53.6661 21.8529 53.7586 22.1208 53.7612H40.176C40.5402 53.7612 40.9044 53.402 41.0865 52.8432C41.613 51.5326 41.9799 50.1608 42.1792 48.7587C45.4415 50.6534 48.0293 53.5612 49.5678 57.0608C51.1247 53.4999 51.3657 49.4824 50.2462 45.7536C49.1266 42.0248 46.7225 38.838 43.48 36.7846C43.6087 25.2066 39.4655 14.0045 31.8769 5.41244C31.7639 5.28321 31.6256 5.17972 31.4709 5.10867C31.3163 5.03762 31.1488 5.00059 30.9793 5H30.9923Z" fill="#4EA8DE"/>
<path d="M30.9793 35.494C29.9802 35.494 29.0034 35.1915 28.1721 34.6245C27.3409 34.0576 26.6923 33.2516 26.3082 32.3083C25.9241 31.3649 25.8216 30.3263 26.0137 29.3235C26.2058 28.3206 26.6839 27.3984 27.3877 26.673C28.0914 25.9477 28.9894 25.4516 29.9684 25.2475C30.9474 25.0433 31.9636 25.1401 32.8888 25.5257C33.8141 25.9113 34.607 26.5684 35.1677 27.4143C35.7284 28.2601 36.0317 29.2568 36.0394 30.2787V30.2787C36.055 30.9409 35.9428 31.5998 35.7093 32.2176C35.4758 32.8355 35.1256 33.4003 34.6786 33.8797C34.2317 34.3591 33.6967 34.7437 33.1044 35.0116C32.5121 35.2794 31.8739 35.4253 31.2264 35.4408C31.1446 35.4543 31.0611 35.4543 30.9793 35.4408V35.494Z" fill="#4EA8DE"/>
</svg>
